<svg width="36" height="28" viewBox="0 0 36 28" fill="none" xmlns="http://www.w3.org/2000/svg">
<path d="M14.985 9.5885C14.715 10.6497 13.32 10.0554 13.905 10.1828L5.04 8.0604C4.545 7.93306 4.275 7.46614 4.41 7.04167C4.545 6.57475 5.04 6.32007 5.49 6.44741L14.355 8.61222C14.805 8.69711 15.075 9.16403 14.985 9.5885ZM14.31 14.2577L5.445 12.0929C4.95 11.9656 4.455 12.2627 4.365 12.6872C4.23 13.1541 4.545 13.621 4.995 13.7059L13.86 15.8707C13.275 15.7434 14.67 16.2527 14.94 15.2764C15.075 14.852 14.805 14.385 14.31 14.2577ZM11.655 19.224L5.445 17.6959C4.95 17.5686 4.455 17.8657 4.365 18.2902C4.23 18.7571 4.545 19.224 4.995 19.3089L11.205 20.837C10.62 20.7097 12.015 21.2191 12.285 20.2428C12.42 19.8183 12.15 19.3514 11.655 19.224ZM36 0.844372V23.1292C36 23.5112 35.73 23.8508 35.325 23.9357L18.225 27.9682C18.09 28.0106 17.91 28.0106 17.775 27.9682L0.675 23.9357C0.27 23.8508 0 23.5112 0 23.1292V0.844372C0 0.292557 0.54 -0.131915 1.125 0.0378741L18 4.02792L34.875 0.0378741C35.46 -0.131915 36 0.292557 36 0.844372ZM17.1 5.55602L1.8 1.948V22.45L17.1 26.058V5.55602ZM34.2 1.948L18.9 5.55602V26.058L34.2 22.45V1.948ZM31.59 7.04167C31.455 6.57475 30.96 6.32007 30.51 6.44741L21.645 8.61222C21.15 8.73956 20.88 9.20648 21.015 9.63095C21.285 10.6921 22.68 10.0979 22.095 10.2252L30.96 8.0604C31.455 7.93306 31.725 7.46614 31.59 7.04167ZM31.59 12.7296C31.455 12.2627 30.96 12.008 30.51 12.1353L21.645 14.3002C21.15 14.4275 20.88 14.8944 21.015 15.3189C21.285 16.3376 22.68 15.7858 22.095 15.9131L30.96 13.7483C31.455 13.621 31.725 13.1541 31.59 12.7296ZM28.935 18.9693C28.8 18.5024 28.305 18.2477 27.855 18.3751L21.645 19.9032C21.15 20.0305 20.88 20.4975 21.015 20.9219C21.285 21.9831 22.68 21.3888 22.095 21.5162L28.305 20.0305C28.8 19.9032 29.07 19.4363 28.935 18.9693Z" fill="white"/>
</svg>
